<?xml version="1.0" encoding="utf-8"?>
<!-- Generator: Adobe Illustrator 22.0.1, SVG Export Plug-In . SVG Version: 6.00 Build 0)  -->
<svg version="1.1" id="Layer_1" xmlns="http://www.w3.org/2000/svg" xmlns:xlink="http://www.w3.org/1999/xlink" x="0px" y="0px"
	 viewBox="0 0 1322.2 201.2" style="enable-background:new 0 0 1322.2 201.2;" xml:space="preserve">
<style type="text/css">
	.st0{fill:#4314FF;}
	.st1{fill:none;stroke:#000000;stroke-width:13;stroke-linecap:round;stroke-linejoin:round;stroke-miterlimit:10;}
	.st2{fill:#FFFFFF;}
	.st3{fill:none;stroke:#000000;stroke-width:7;stroke-miterlimit:10;}
	.st4{fill:#FFFFFF;stroke:#000000;stroke-width:5;stroke-miterlimit:10;}
	.st5{fill:#FFFFFF;stroke:#000000;stroke-width:6;stroke-miterlimit:10;}
	.st6{fill:none;stroke:#000000;stroke-width:9;stroke-miterlimit:10;}
	.st7{fill:none;stroke:#000000;stroke-width:11;stroke-miterlimit:10;}
	.st8{fill:none;stroke:#000000;stroke-width:6;stroke-miterlimit:10;}
	.st9{fill:none;stroke:#000000;stroke-width:4;stroke-miterlimit:10;}
	.st10{clip-path:url(#SVGID_2_);fill:#4314FF;}
	.st11{fill:none;stroke:#000000;stroke-width:6;stroke-linejoin:bevel;stroke-miterlimit:10;}
</style>
<g>
	<g>
		<path class="st0" d="M364.8,78.1c3.7,0,7.4,0.8,10.9,2.5c12.4,6,17.6,21,11.5,33.4c-4.3,8.9-13.2,14.1-22.5,14.1
			c-3.7,0-7.4-0.8-10.9-2.5c-12.4-6-17.6-21-11.5-33.4C346.7,83.3,355.6,78.1,364.8,78.1 M364.8,68.1L364.8,68.1
			c-13.3,0-25.7,7.7-31.5,19.7c-8.4,17.3-1.2,38.3,16.1,46.8c4.8,2.3,10,3.5,15.3,3.5c13.3,0,25.7-7.7,31.5-19.7
			c8.4-17.3,1.2-38.3-16.1-46.8C375.3,69.3,370.2,68.1,364.8,68.1L364.8,68.1z"/>
	</g>
	
		<ellipse transform="matrix(0.4424 -0.8968 0.8968 0.4424 111.2363 385.1137)" class="st1" cx="365.3" cy="103.1" rx="57.2" ry="84.6"/>
	<g>
		<path class="st2" d="M336.3,63.6c-3,0-6-0.7-8.7-2c-9.9-4.8-14.1-16.8-9.2-26.7c3.4-6.9,10.3-11.2,18-11.2c3,0,6,0.7,8.7,2
			c9.9,4.8,14.1,16.8,9.2,26.7C350.9,59.3,344,63.6,336.3,63.6z"/>
		<path d="M336.3,27.1c2.4,0,4.9,0.5,7.2,1.7c8.2,4,11.6,13.9,7.6,22.1c-2.9,5.9-8.7,9.3-14.8,9.3c-2.4,0-4.9-0.5-7.2-1.7
			c-8.2-4-11.6-13.9-7.6-22.1C324.4,30.5,330.2,27.1,336.3,27.1 M336.3,20.1L336.3,20.1c-8.9,0-17.2,5.2-21.1,13.2
			c-5.7,11.6-0.8,25.7,10.8,31.4c3.2,1.6,6.7,2.4,10.3,2.4c8.9,0,17.2-5.2,21.1-13.2c5.7-11.6,0.8-25.7-10.8-31.4
			C343.4,20.9,339.9,20.1,336.3,20.1L336.3,20.1z"/>
	</g>
	<g>
		<path class="st2" d="M376.3,180.6c-2.4,0-4.8-0.5-7-1.6c-3.8-1.9-6.7-5.1-8.1-9.2c-1.4-4-1.1-8.4,0.7-12.2c2.7-5.5,8.2-9,14.4-9
			c2.4,0,4.8,0.5,7,1.6c3.8,1.9,6.7,5.1,8.1,9.2c1.4,4,1.1,8.4-0.7,12.2C388,177.2,382.5,180.6,376.3,180.6z"/>
		<path d="M376.3,152.1c1.8,0,3.7,0.4,5.5,1.3c6.2,3,8.8,10.5,5.8,16.7c-2.2,4.4-6.6,7-11.2,7c-1.8,0-3.7-0.4-5.5-1.3
			c-6.2-3-8.8-10.5-5.8-16.7C367.3,154.7,371.7,152.1,376.3,152.1 M376.3,145.1L376.3,145.1c-7.4,0-14.3,4.3-17.5,11
			c-4.7,9.7-0.7,21.4,9,26.1c2.7,1.3,5.6,2,8.5,2c7.4,0,14.3-4.3,17.5-11c2.3-4.7,2.6-10,0.9-14.9s-5.2-8.9-9.9-11.2
			C382.2,145.8,379.3,145.1,376.3,145.1L376.3,145.1z"/>
	</g>
	<g>
		<path class="st2" d="M441.9,142.6c-3.3,0-6.4-0.7-9.2-2.1c-10.9-5.3-15.4-18.6-10.1-29.5c3.7-7.5,11.4-12.4,19.8-12.4
			c3.4,0,6.6,0.8,9.6,2.2c10.9,5.3,15.4,18.6,10.1,29.5C458.5,137.8,450.6,142.6,441.9,142.6z"/>
		<path d="M442.3,103.1c2.6,0,5.2,0.6,7.6,1.8c8.7,4.3,12.3,14.8,8.1,23.5c-3,6.3-9.7,9.7-16.2,9.7c-2.5,0-5-0.5-7.2-1.6
			c-8.7-4.3-12.3-14.8-8.1-23.5C429.6,106.7,435.9,103.1,442.3,103.1 M442.3,94.1L442.3,94.1c-10.1,0-19.4,5.9-23.8,15
			c-6.4,13.2-0.9,29.1,12.2,35.5c3.4,1.7,7.2,2.5,11.2,2.5c10.4,0,19.9-5.8,24.3-14.8c6.4-13.2,0.9-29.1-12.2-35.5
			C450.3,95,446.4,94.1,442.3,94.1L442.3,94.1z"/>
	</g>
	<g>
		<path class="st2" d="M285.3,108.6c-2.4,0-4.8-0.5-7-1.6c-3.8-1.9-6.7-5.1-8.1-9.2s-1.1-8.4,0.7-12.2c2.7-5.5,8.3-9,14.4-9
			c2.4,0,4.8,0.5,7,1.6c3.8,1.9,6.7,5.1,8.1,9.2s1.1,8.4-0.7,12.2C297,105.1,291.4,108.6,285.3,108.6z"/>
		<path d="M285.3,81.1c1.7,0,3.4,0.4,5,1.2c5.7,2.8,8.1,9.7,5.3,15.4c-2,4.1-6.1,6.5-10.3,6.5c-1.7,0-3.4-0.4-5-1.2
			c-5.7-2.8-8.1-9.7-5.3-15.4C277,83.5,281.1,81.1,285.3,81.1 M285.3,72.1L285.3,72.1c-7.8,0-15,4.5-18.4,11.5
			c-4.9,10.2-0.7,22.5,9.5,27.4c2.8,1.4,5.8,2.1,9,2.1c7.8,0,15-4.5,18.4-11.5c4.9-10.2,0.7-22.5-9.5-27.4
			C291.5,72.8,288.5,72.1,285.3,72.1L285.3,72.1z"/>
	</g>
</g>
<g>
	<path class="st3" d="M880.4,57.2l127.9,0c6.6,0,12,5.4,12,12v71.3c0,6.6-5.4,12-12,12l-127.9,0c-6.6,0-12-5.4-12-12V69.2
		C868.4,62.6,873.8,57.2,880.4,57.2z"/>
	<polygon class="st4" points="932.7,41 957.7,41 971,77.6 917.7,77.6 	"/>
	<ellipse class="st5" cx="943.8" cy="115.1" rx="48.6" ry="48.1"/>
	<ellipse class="st0" cx="944.7" cy="115.4" rx="32.1" ry="31.9"/>
	<rect x="886" y="45.7" width="27.4" height="8.1"/>
</g>
<g>
	<rect x="1174.5" y="89.1" class="st0" width="16" height="7.4"/>
	<rect x="1174.5" y="102.1" class="st0" width="16" height="7.4"/>
	<circle class="st6" cx="1244.2" cy="102.1" r="73.5"/>
	<ellipse class="st6" cx="1228.6" cy="102.3" rx="80" ry="71.8"/>
	<g>
		<circle class="st0" cx="1244.2" cy="103.6" r="64"/>
		<path class="st2" d="M1244.2,46.1c31.8,0,57.5,25.7,57.5,57.5s-25.7,57.5-57.5,57.5s-57.5-25.7-57.5-57.5S1212.5,46.1,1244.2,46.1
			 M1244.2,33.1c-38.9,0-70.5,31.6-70.5,70.5s31.6,70.5,70.5,70.5s70.5-31.6,70.5-70.5S1283.1,33.1,1244.2,33.1L1244.2,33.1z"/>
	</g>
	<rect x="1151.6" y="74.1" width="23.1" height="5.8"/>
	<rect x="1148.6" y="86.2" width="23.1" height="5.8"/>
	<rect x="1148.6" y="98.3" width="23.1" height="5.8"/>
	<rect x="1148.6" y="110.4" width="23.1" height="5.8"/>
	<rect x="1149.6" y="122.5" width="22.1" height="5.8"/>
	<rect x="1156" y="134.6" width="21.9" height="5.8"/>
	<rect x="1166.1" y="146.7" width="19.9" height="5.8"/>
	<rect x="1159.1" y="59.8" width="20.4" height="5.8"/>
	<g>
		<rect x="1241.5" y="67.9" class="st2" width="7.7" height="71.4"/>
		
			<rect x="1240.4" y="71.5" transform="matrix(0.6866 -0.727 0.727 0.6866 316.7581 936.0923)" class="st2" width="7.7" height="58.2"/>
		
			<rect x="1240.4" y="76.7" transform="matrix(0.7071 0.7071 -0.7071 0.7071 435.5694 -850.3243)" class="st2" width="7.7" height="47.7"/>
	</g>
</g>
<g>
	<path class="st7" d="M138.6,174.7H17.5c-6.6,0-12-5.4-12-12V41.5c0-6.6,5.4-12,12-12h121.1c6.6,0,12,5.4,12,12v121.1
		C150.6,169.3,145.2,174.7,138.6,174.7z"/>
	<path class="st0" d="M95.9,59.7H28.1c-4.1,0-7.4-3.3-7.4-7.4v0c0-4.1,3.3-7.4,7.4-7.4h67.8c4.1,0,7.4,3.3,7.4,7.4v0
		C103.3,56.3,100,59.7,95.9,59.7z"/>
	<path class="st0" d="M73.8,79.6H28.1c-4.1,0-7.4-3.3-7.4-7.4v0c0-4.1,3.3-7.4,7.4-7.4h45.6c4.1,0,7.4,3.3,7.4,7.4v0
		C81.2,76.3,77.8,79.6,73.8,79.6z"/>
	<path class="st0" d="M73.8,99.6H28.1c-4.1,0-7.4-3.3-7.4-7.4v0c0-4.1,3.3-7.4,7.4-7.4h45.6c4.1,0,7.4,3.3,7.4,7.4v0
		C81.2,96.2,77.8,99.6,73.8,99.6z"/>
	<path class="st0" d="M73.8,139.5H28.1c-4.1,0-7.4-3.3-7.4-7.4v0c0-4.1,3.3-7.4,7.4-7.4h45.6c4.1,0,7.4,3.3,7.4,7.4v0
		C81.2,136.1,77.8,139.5,73.8,139.5z"/>
	<path class="st0" d="M73.8,159.4H28.1c-4.1,0-7.4-3.3-7.4-7.4v0c0-4.1,3.3-7.4,7.4-7.4h45.6c4.1,0,7.4,3.3,7.4,7.4v0
		C81.2,156.1,77.8,159.4,73.8,159.4z"/>
	<path class="st0" d="M108.8,119.5H28.1c-4.1,0-7.4-3.3-7.4-7.4v0c0-4.1,3.3-7.4,7.4-7.4h80.6c4.1,0,7.4,3.3,7.4,7.4v0
		C116.2,116.2,112.8,119.5,108.8,119.5z"/>
</g>
<g>
	<rect x="635.3" y="111" class="st0" width="40.7" height="5.8"/>
	<rect x="635.3" y="66.5" class="st0" width="40.7" height="5.8"/>
	<g>
		<path class="st0" d="M655.5,201.2L655.5,201.2c-3.4,0-6.3-2.8-6.3-6.3v-16.4c0-3.4,2.8-6.3,6.3-6.3l0,0c3.4,0,6.3,2.8,6.3,6.3
			v16.4C661.8,198.4,659,201.2,655.5,201.2z"/>
		<path class="st0" d="M669.7,193.9L669.7,193.9c-3.4,0-6.3-2.8-6.3-6.3v-9.1c0-3.4,2.8-6.3,6.3-6.3l0,0c3.4,0,6.3,2.8,6.3,6.3v9.1
			C675.9,191.1,673.1,193.9,669.7,193.9z"/>
		<path class="st0" d="M641.5,191L641.5,191c-3.4,0-6.3-2.8-6.3-6.3v-6.2c0-3.4,2.8-6.3,6.3-6.3l0,0c3.4,0,6.3,2.8,6.3,6.3v6.2
			C647.8,188.2,645,191,641.5,191z"/>
	</g>
	<rect x="635.3" y="52.1" class="st8" width="40.7" height="107.2"/>
	<g>
		<path class="st2" d="M635.3,169.6c-5.5,0-7.5-10.4-7.5-19.3c0-9.9,5.2-17.9,5.4-18.2l2.1-3.1l2.1,3.1c0.2,0.3,5.4,8.3,5.4,18.2
			C642.8,159.2,640.8,169.6,635.3,169.6z"/>
		<path d="M635.3,133.5c0,0,5,7.5,5,16.8c0,9.3-2.2,16.8-5,16.8s-5-7.5-5-16.8C630.3,141,635.3,133.5,635.3,133.5 M635.3,124.4
			l-4.2,6.3c-0.2,0.4-5.8,8.9-5.8,19.6c0,5.1,0.7,21.8,10,21.8s10-16.7,10-21.8c0-10.7-5.6-19.3-5.8-19.6L635.3,124.4L635.3,124.4z"
			/>
	</g>
	<g>
		<path class="st2" d="M675.9,169.6c-5.5,0-7.5-10.4-7.5-19.3c0-9.9,5.2-17.9,5.4-18.2l2.1-3.1l2.1,3.1c0.2,0.3,5.4,8.3,5.4,18.2
			C683.4,159.2,681.5,169.6,675.9,169.6z"/>
		<path d="M675.9,133.5c0,0,5,7.5,5,16.8c0,9.3-2.2,16.8-5,16.8s-5-7.5-5-16.8C670.9,141,675.9,133.5,675.9,133.5 M675.9,124.4
			l-4.2,6.3c-0.2,0.4-5.8,8.9-5.8,19.6c0,5.1,0.7,21.8,10,21.8s10-16.7,10-21.8c0-10.7-5.6-19.3-5.8-19.6L675.9,124.4L675.9,124.4z"
			/>
	</g>
	<polygon class="st9" points="627.6,34.1 683.6,34.1 678.9,50.2 632.3,50.2 	"/>
	<g id="Artwork_15_1_">
		<g>
			<defs>
				<rect id="SVGID_1_" x="648.1" y="81.3" width="15" height="22.5"/>
			</defs>
			<clipPath id="SVGID_2_">
				<use xlink:href="#SVGID_1_"  style="overflow:visible;"/>
			</clipPath>
			<rect x="654.7" y="81.3" class="st10" width="2.4" height="22.5"/>
			
				<rect x="654.4" y="82.4" transform="matrix(0.6866 -0.727 0.727 0.6866 138.8493 505.3369)" class="st10" width="2.4" height="18.3"/>
			
				<rect x="648.1" y="90.4" transform="matrix(0.7071 -0.7071 0.7071 0.7071 127.2424 490.4076)" class="st10" width="15" height="2.4"/>
		</g>
	</g>
	<path class="st11" d="M627.6,33.4c18.7-40.5,37.3-40.5,56,0"/>
</g>
</svg>
