<?xml version="1.0" encoding="utf-8"?>
<!-- Generator: Adobe Illustrator 22.0.1, SVG Export Plug-In . SVG Version: 6.00 Build 0)  -->
<svg version="1.1" id="Layer_1" xmlns="http://www.w3.org/2000/svg" xmlns:xlink="http://www.w3.org/1999/xlink" x="0px" y="0px"
	 viewBox="0 0 546.6 339" style="enable-background:new 0 0 546.6 339;" xml:space="preserve">
<style type="text/css">
	.st0{fill:#4314FF;}
	.st1{fill:none;stroke:#000000;stroke-width:13;stroke-linecap:round;stroke-linejoin:round;stroke-miterlimit:10;}
	.st2{fill:#FFFFFF;}
	.st3{fill:none;stroke:#000000;stroke-width:7;stroke-miterlimit:10;}
	.st4{fill:#FFFFFF;stroke:#000000;stroke-width:5;stroke-miterlimit:10;}
	.st5{fill:#FFFFFF;stroke:#000000;stroke-width:6;stroke-miterlimit:10;}
	.st6{fill:none;stroke:#000000;stroke-width:9;stroke-miterlimit:10;}
	.st7{fill:none;stroke:#000000;stroke-width:11;stroke-miterlimit:10;}
	.st8{fill:none;stroke:#000000;stroke-width:6;stroke-miterlimit:10;}
	.st9{fill:none;stroke:#000000;stroke-width:4;stroke-miterlimit:10;}
	.st10{clip-path:url(#SVGID_2_);fill:#4314FF;}
	.st11{fill:none;stroke:#000000;stroke-width:6;stroke-linejoin:bevel;stroke-miterlimit:10;}
</style>
<g>
	<g>
		<path class="st0" d="M100,58c3.7,0,7.4,0.8,10.9,2.5c12.4,6,17.6,21,11.5,33.4c-4.3,8.9-13.2,14.1-22.5,14.1
			c-3.7,0-7.4-0.8-10.9-2.5c-12.4-6-17.6-21-11.5-33.4C81.9,63.2,90.8,58,100,58 M100,48L100,48c-13.3,0-25.7,7.7-31.5,19.7
			C60.1,85,67.3,106,84.7,114.5c4.8,2.3,10,3.5,15.3,3.5c13.3,0,25.7-7.7,31.5-19.7c8.4-17.3,1.2-38.3-16.1-46.8
			C110.5,49.2,105.3,48,100,48L100,48z"/>
	</g>
	
		<ellipse transform="matrix(0.4424 -0.8968 0.8968 0.4424 -18.4006 136.4046)" class="st1" cx="100.5" cy="83" rx="57.2" ry="84.6"/>
	<g>
		<path class="st2" d="M71.5,43.5c-3,0-6-0.7-8.7-2c-9.9-4.8-14.1-16.8-9.2-26.7c3.4-6.9,10.3-11.2,18-11.2c3,0,6,0.7,8.7,2
			c9.9,4.8,14.1,16.8,9.2,26.7C86.1,39.2,79.2,43.5,71.5,43.5z"/>
		<path d="M71.5,7c2.4,0,4.9,0.5,7.2,1.7c8.2,4,11.6,13.9,7.6,22.1c-2.9,5.9-8.7,9.3-14.8,9.3c-2.4,0-4.9-0.5-7.2-1.7
			c-8.2-4-11.6-13.9-7.6-22.1C59.5,10.4,65.4,7,71.5,7 M71.5,0L71.5,0c-8.9,0-17.2,5.2-21.1,13.2C44.7,24.9,49.6,39,61.2,44.6
			c3.2,1.6,6.7,2.4,10.3,2.4c8.9,0,17.2-5.2,21.1-13.2C98.3,22.1,93.4,8,81.8,2.4C78.5,0.8,75.1,0,71.5,0L71.5,0z"/>
	</g>
	<g>
		<path class="st2" d="M111.5,160.5c-2.4,0-4.8-0.5-7-1.6c-3.8-1.9-6.7-5.1-8.1-9.2c-1.4-4-1.1-8.4,0.7-12.2c2.7-5.5,8.2-9,14.4-9
			c2.4,0,4.8,0.5,7,1.6c3.8,1.9,6.7,5.1,8.1,9.2c1.4,4,1.1,8.4-0.7,12.2C123.2,157.1,117.7,160.5,111.5,160.5z"/>
		<path d="M111.5,132c1.8,0,3.7,0.4,5.5,1.3c6.2,3,8.8,10.5,5.8,16.7c-2.2,4.4-6.6,7-11.2,7c-1.8,0-3.7-0.4-5.5-1.3
			c-6.2-3-8.8-10.5-5.8-16.7C102.4,134.6,106.9,132,111.5,132 M111.5,125L111.5,125c-7.4,0-14.3,4.3-17.5,11
			c-4.7,9.7-0.7,21.4,9,26.1c2.7,1.3,5.6,2,8.5,2c7.4,0,14.3-4.3,17.5-11c2.3-4.7,2.6-10,0.9-14.9s-5.2-8.9-9.9-11.2
			C117.3,125.7,114.5,125,111.5,125L111.5,125z"/>
	</g>
	<g>
		<path class="st2" d="M177,122.5c-3.3,0-6.4-0.7-9.2-2.1c-10.9-5.3-15.4-18.6-10.1-29.5c3.7-7.5,11.4-12.4,19.8-12.4
			c3.4,0,6.6,0.8,9.6,2.2c10.9,5.3,15.4,18.6,10.1,29.5C193.7,117.7,185.7,122.5,177,122.5z"/>
		<path d="M177.5,83c2.6,0,5.2,0.6,7.6,1.8c8.7,4.3,12.3,14.8,8.1,23.5c-3,6.3-9.7,9.7-16.2,9.7c-2.5,0-5-0.5-7.2-1.6
			c-8.7-4.3-12.3-14.8-8.1-23.5C164.8,86.6,171,83,177.5,83 M177.5,74L177.5,74c-10.1,0-19.4,5.9-23.8,15
			c-6.4,13.2-0.9,29.1,12.2,35.5c3.4,1.7,7.2,2.5,11.2,2.5c10.4,0,19.9-5.8,24.3-14.8c6.4-13.2,0.9-29.1-12.2-35.5
			C185.5,74.9,181.6,74,177.5,74L177.5,74z"/>
	</g>
	<g>
		<path class="st2" d="M20.5,88.5c-2.4,0-4.8-0.5-7-1.6c-3.8-1.9-6.7-5.1-8.1-9.2s-1.1-8.4,0.7-12.2c2.7-5.5,8.3-9,14.4-9
			c2.4,0,4.8,0.5,7,1.6c3.8,1.9,6.7,5.1,8.1,9.2s1.1,8.4-0.7,12.2C32.2,85,26.6,88.5,20.5,88.5z"/>
		<path d="M20.5,61c1.7,0,3.4,0.4,5,1.2c5.7,2.8,8.1,9.7,5.3,15.4c-2,4.1-6.1,6.5-10.3,6.5c-1.7,0-3.4-0.4-5-1.2
			c-5.7-2.8-8.1-9.7-5.3-15.4C12.1,63.4,16.2,61,20.5,61 M20.5,52L20.5,52c-7.8,0-15,4.5-18.4,11.5C-2.9,73.7,1.4,86,11.5,90.9
			c2.8,1.4,5.8,2.1,9,2.1c7.8,0,15-4.5,18.4-11.5c4.9-10.2,0.7-22.5-9.5-27.4C26.6,52.7,23.6,52,20.5,52L20.5,52z"/>
	</g>
</g>
<g>
	<path class="st3" d="M403.2,31.9l127.9,0c6.6,0,12,5.4,12,12v71.3c0,6.6-5.4,12-12,12H403.2c-6.6,0-12-5.4-12-12V43.9
		C391.2,37.3,396.6,31.9,403.2,31.9z"/>
	<polygon class="st4" points="455.5,15.6 480.5,15.6 493.8,52.2 440.5,52.2 	"/>
	<ellipse class="st5" cx="466.6" cy="89.8" rx="48.6" ry="48.1"/>
	<ellipse class="st0" cx="467.5" cy="90.1" rx="32.1" ry="31.9"/>
	<rect x="408.8" y="20.4" width="27.4" height="8.1"/>
</g>
<g>
	<rect x="40.3" y="248" class="st0" width="16" height="7.4"/>
	<rect x="40.3" y="261" class="st0" width="16" height="7.4"/>
	<circle class="st6" cx="110.1" cy="261" r="73.5"/>
	<ellipse class="st6" cx="94.4" cy="261.2" rx="80" ry="71.8"/>
	<g>
		<circle class="st0" cx="110.1" cy="262.5" r="64"/>
		<path class="st2" d="M110.1,205c31.8,0,57.5,25.7,57.5,57.5S141.8,320,110.1,320s-57.5-25.7-57.5-57.5S78.3,205,110.1,205
			 M110.1,192c-38.9,0-70.5,31.6-70.5,70.5S71.2,333,110.1,333s70.5-31.6,70.5-70.5S148.9,192,110.1,192L110.1,192z"/>
	</g>
	<rect x="17.4" y="233" width="23.1" height="5.8"/>
	<rect x="14.4" y="245.1" width="23.1" height="5.8"/>
	<rect x="14.4" y="257.2" width="23.1" height="5.8"/>
	<rect x="14.4" y="269.3" width="23.1" height="5.8"/>
	<rect x="15.5" y="281.4" width="22.1" height="5.8"/>
	<rect x="21.8" y="293.5" width="21.9" height="5.8"/>
	<rect x="32" y="305.6" width="19.9" height="5.8"/>
	<rect x="25" y="218.7" width="20.4" height="5.8"/>
	<g>
		<rect x="107.3" y="226.8" class="st2" width="7.7" height="71.4"/>
		
			<rect x="106.2" y="230.4" transform="matrix(0.6866 -0.727 0.727 0.6866 -154.1552 161.3428)" class="st2" width="7.7" height="58.2"/>
		
			<rect x="106.2" y="235.6" transform="matrix(0.7071 0.7071 -0.7071 0.7071 215.725 -1.833)" class="st2" width="7.7" height="47.7"/>
	</g>
</g>
<g>
	<path class="st7" d="M528.1,325.8H406.9c-6.6,0-12-5.4-12-12V192.7c0-6.6,5.4-12,12-12h121.1c6.6,0,12,5.4,12,12v121.1
		C540.1,320.4,534.7,325.8,528.1,325.8z"/>
	<path class="st0" d="M485.4,210.8h-67.8c-4.1,0-7.4-3.3-7.4-7.4v0c0-4.1,3.3-7.4,7.4-7.4h67.8c4.1,0,7.4,3.3,7.4,7.4v0
		C492.8,207.5,489.4,210.8,485.4,210.8z"/>
	<path class="st0" d="M463.2,230.8h-45.6c-4.1,0-7.4-3.3-7.4-7.4v0c0-4.1,3.3-7.4,7.4-7.4h45.6c4.1,0,7.4,3.3,7.4,7.4v0
		C470.6,227.5,467.3,230.8,463.2,230.8z"/>
	<path class="st0" d="M463.2,250.8h-45.6c-4.1,0-7.4-3.3-7.4-7.4v0c0-4.1,3.3-7.4,7.4-7.4h45.6c4.1,0,7.4,3.3,7.4,7.4v0
		C470.6,247.4,467.3,250.8,463.2,250.8z"/>
	<path class="st0" d="M463.2,290.7h-45.6c-4.1,0-7.4-3.3-7.4-7.4v0c0-4.1,3.3-7.4,7.4-7.4h45.6c4.1,0,7.4,3.3,7.4,7.4v0
		C470.6,287.3,467.3,290.7,463.2,290.7z"/>
	<path class="st0" d="M463.2,310.6h-45.6c-4.1,0-7.4-3.3-7.4-7.4v0c0-4.1,3.3-7.4,7.4-7.4h45.6c4.1,0,7.4,3.3,7.4,7.4v0
		C470.6,307.3,467.3,310.6,463.2,310.6z"/>
	<path class="st0" d="M498.2,270.7h-80.6c-4.1,0-7.4-3.3-7.4-7.4l0,0c0-4.1,3.3-7.4,7.4-7.4h80.6c4.1,0,7.4,3.3,7.4,7.4l0,0
		C505.6,267.4,502.3,270.7,498.2,270.7z"/>
</g>
<g>
	<rect x="272.8" y="189.2" class="st0" width="40.7" height="5.8"/>
	<rect x="272.8" y="144.7" class="st0" width="40.7" height="5.8"/>
	<g>
		<path class="st0" d="M293,279.4L293,279.4c-3.4,0-6.3-2.8-6.3-6.3v-16.4c0-3.4,2.8-6.3,6.3-6.3l0,0c3.4,0,6.3,2.8,6.3,6.3v16.4
			C299.3,276.6,296.5,279.4,293,279.4z"/>
		<path class="st0" d="M307.2,272.1L307.2,272.1c-3.4,0-6.3-2.8-6.3-6.3v-9.1c0-3.4,2.8-6.3,6.3-6.3l0,0c3.4,0,6.3,2.8,6.3,6.3v9.1
			C313.4,269.3,310.6,272.1,307.2,272.1z"/>
		<path class="st0" d="M279,269.2L279,269.2c-3.4,0-6.3-2.8-6.3-6.3v-6.2c0-3.4,2.8-6.3,6.3-6.3l0,0c3.4,0,6.3,2.8,6.3,6.3v6.2
			C285.3,266.4,282.5,269.2,279,269.2z"/>
	</g>
	<rect x="272.8" y="130.2" class="st8" width="40.7" height="107.2"/>
	<g>
		<path class="st2" d="M272.8,247.8c-5.5,0-7.5-10.4-7.5-19.3c0-9.9,5.2-17.9,5.4-18.2l2.1-3.1l2.1,3.1c0.2,0.3,5.4,8.3,5.4,18.2
			C280.3,237.4,278.3,247.8,272.8,247.8z"/>
		<path d="M272.8,211.6c0,0,5,7.5,5,16.8c0,9.3-2.2,16.8-5,16.8s-5-7.5-5-16.8C267.8,219.2,272.8,211.6,272.8,211.6 M272.8,202.6
			l-4.2,6.3c-0.2,0.4-5.8,8.9-5.8,19.6c0,5.1,0.7,21.8,10,21.8s10-16.7,10-21.8c0-10.7-5.6-19.3-5.8-19.6L272.8,202.6L272.8,202.6z"
			/>
	</g>
	<g>
		<path class="st2" d="M313.4,247.8c-5.5,0-7.5-10.4-7.5-19.3c0-9.9,5.2-17.9,5.4-18.2l2.1-3.1l2.1,3.1c0.2,0.3,5.4,8.3,5.4,18.2
			C320.9,237.4,319,247.8,313.4,247.8z"/>
		<path d="M313.4,211.6c0,0,5,7.5,5,16.8c0,9.3-2.2,16.8-5,16.8s-5-7.5-5-16.8C308.4,219.2,313.4,211.6,313.4,211.6 M313.4,202.6
			l-4.2,6.3c-0.2,0.4-5.8,8.9-5.8,19.6c0,5.1,0.7,21.8,10,21.8s10-16.7,10-21.8c0-10.7-5.6-19.3-5.8-19.6L313.4,202.6L313.4,202.6z"
			/>
	</g>
	<polygon class="st9" points="265.1,112.3 321.1,112.3 316.4,128.4 269.8,128.4 	"/>
	<g id="Artwork_15_1_">
		<g>
			<defs>
				<rect id="SVGID_1_" x="285.6" y="159.5" width="15" height="22.5"/>
			</defs>
			<clipPath id="SVGID_2_">
				<use xlink:href="#SVGID_1_"  style="overflow:visible;"/>
			</clipPath>
			<rect x="292.2" y="159.5" class="st10" width="2.4" height="22.5"/>
			
				<rect x="291.9" y="160.6" transform="matrix(0.6866 -0.727 0.727 0.6866 -31.593 266.3075)" class="st10" width="2.4" height="18.3"/>
			
				<rect x="285.6" y="168.6" transform="matrix(0.7071 -0.7071 0.7071 0.7071 -34.2171 256.9933)" class="st10" width="15" height="2.4"/>
		</g>
	</g>
	<path class="st11" d="M265.1,111.6c18.7-40.5,37.3-40.5,56,0"/>
</g>
</svg>
