<svg id="Layer_1" data-name="Layer 1" xmlns="http://www.w3.org/2000/svg" xmlns:xlink="http://www.w3.org/1999/xlink" viewBox="0 0 717.12 778.21"><defs><style>.cls-1{fill:none;clip-rule:evenodd;}.cls-2,.cls-3,.cls-5{fill-rule:evenodd;}.cls-3{fill:#fff;}.cls-4{clip-path:url(#clip-path);}.cls-5{fill:#4314ff;}</style><clipPath id="clip-path" transform="translate(-1194.43 -170)"><path class="cls-1" d="M1721,622.17c0,122.28-99.13,221.42-221.42,221.42s-221.44-99.14-221.44-221.42a176.75,176.75,0,0,1,2.37-32.55c12.25-70.75,72.41-155.69,163.29-181.26V186H1554.4v222C1647.63,432.53,1721,518.07,1721,622.17Z"/></clipPath></defs><title>beakericon</title><ellipse cx="304.68" cy="452.42" rx="237.11" ry="236.58"/><path class="cls-2" d="M1568.22,187.33V438.69c0,4.85-5.78,8.82-12.85,8.82H1442.85c-7.07,0-12.85-4-12.85-8.82V187.33c0-4.85,5.78-8.82,12.85-8.82h112.52C1562.44,178.51,1568.22,182.48,1568.22,187.33Z" transform="translate(-1194.43 -170)"/><rect x="224.93" width="159.49" height="17.01" rx="8.51"/><path class="cls-3" d="M1721,622.17c0,122.28-99.13,221.42-221.42,221.42s-221.44-99.14-221.44-221.42a176.75,176.75,0,0,1,2.37-32.55c12.25-70.75,72.41-155.69,163.29-181.26V186H1554.4v222C1647.63,432.53,1721,518.07,1721,622.17Z" transform="translate(-1194.43 -170)"/><rect x="284.47" y="192.45" width="85.06" height="19.14" rx="9.57"/><rect x="284.47" y="80.81" width="85.06" height="19.14" rx="9.57"/><rect x="298.3" y="166.93" width="71.24" height="9.57" rx="4.78"/><rect x="298.3" y="141.42" width="71.24" height="9.57" rx="4.78"/><rect x="298.3" y="115.9" width="71.24" height="9.57" rx="4.78"/><rect x="298.3" y="55.29" width="71.24" height="9.57" rx="4.78"/><rect x="298.3" y="29.77" width="71.24" height="9.57" rx="4.78"/><g class="cls-4"><path class="cls-5" d="M1242.86,924.92c-71-56.1-56.5-213.39-4.25-311.54,41.06-77.14,130.64-165.1,204.15-147.79,45.37,10.69,48.86,53.07,93.56,91.44,127.56,109.49,357.6-13.72,374.28,20.2C1937.23,631.42,1401.5,1050.26,1242.86,924.92Z" transform="translate(-1194.43 -170)"/></g><path class="cls-5" d="M1446,529.39" transform="translate(-1194.43 -170)"/></svg>