<svg id="Layer_1" data-name="Layer 1" xmlns="http://www.w3.org/2000/svg" xmlns:xlink="http://www.w3.org/1999/xlink" viewBox="0 0 480.76 694"><defs><style>.cls-1{fill:none;clip-rule:evenodd;}.cls-2,.cls-3,.cls-5{fill-rule:evenodd;}.cls-3{fill:#fff;}.cls-4{clip-path:url(#clip-path);}.cls-5{fill:#4314ff;}</style><clipPath id="clip-path"><path class="cls-1" d="M462.32,452.17c0,122.28-99.14,221.42-221.43,221.42S19.46,574.45,19.46,452.17a175.85,175.85,0,0,1,2.37-32.55c12.25-70.75,72.41-155.69,163.28-181.26V16H295.69v222C388.92,262.53,462.32,348.07,462.32,452.17Z"/></clipPath></defs><title>beakericon</title><ellipse cx="240.4" cy="452.42" rx="237.11" ry="236.58"/><path class="cls-2" d="M309.52,17.33V268.69c0,4.85-5.78,8.82-12.85,8.82H184.14c-7.07,0-12.85-4-12.85-8.82V17.33c0-4.85,5.78-8.82,12.85-8.82H296.67C303.74,8.51,309.52,12.48,309.52,17.33Z"/><rect x="160.66" width="159.49" height="17.01" rx="8.51"/><path class="cls-3" d="M462.32,452.17c0,122.28-99.14,221.42-221.43,221.42S19.46,574.45,19.46,452.17a175.85,175.85,0,0,1,2.37-32.55c12.25-70.75,72.41-155.69,163.28-181.26V16H295.69v222C388.92,262.53,462.32,348.07,462.32,452.17Z"/><rect x="220.2" y="192.45" width="85.06" height="19.14" rx="9.57"/><rect x="220.2" y="80.81" width="85.06" height="19.14" rx="9.57"/><rect x="234.03" y="166.93" width="71.24" height="9.57" rx="4.78"/><rect x="234.03" y="141.42" width="71.24" height="9.57" rx="4.78"/><rect x="234.03" y="115.9" width="71.24" height="9.57" rx="4.78"/><rect x="234.03" y="55.29" width="71.24" height="9.57" rx="4.78"/><rect x="234.03" y="29.77" width="71.24" height="9.57" rx="4.78"/><g class="cls-4"><path class="cls-5" d="M480.24,462.35h0a112.49,112.49,0,0,1-1.65-19.26c.05-3.16.07-6.29-.1-9.42-.27-1.32-.56-2.62-.85-3.93C409,438.3,333.48,435,277.62,387c-44.7-38.37-48.2-80.75-93.57-91.44C122.88,281.18,50.59,339.68,4.38,404.18c-.22.5-.45,1-.68,1.49-.56,1.21-1.16,2.4-1.73,3.61-.24.5-.43.87-.58,1.15-.12,1.43-.18,2.86-.22,4.3a30.79,30.79,0,0,1,1.44,7.78c.31,5.93-1,11.83-2,17.7-.2,2.9-.39,5.8-.5,8.7,0,.14,0,.28,0,.41,0,.52,0,1,0,1.56,0,2.18,0,4.35,0,6.52v.26c.1,3.43.31,6.85.67,10.25,1.58,10.29,3.47,20.54,4.2,30.94a22.63,22.63,0,0,1-.37,6c2.51,11,6.37,21.56,10.07,32.22a.64.64,0,0,0,0,.07A58.24,58.24,0,0,1,23,552.64c2.51,6.67,4.43,13.63,6.64,20.41.67,2.06,1.39,4.13,2,6.22.66,1.11,1.28,2.26,2,3.34.21.33.45.65.68,1,4.31,4.92,8.69,9.79,12.74,14.93,2.12,2.69,4.22,5.42,6.3,8.15.25.15.49.29.73.45a105.34,105.34,0,0,1,22.42,19.32c3.65,4.23,7,8.71,10.42,13.13L90.35,644l-1.88-2.46c.66.77,1.36,1.51,2.09,2.21A21.72,21.72,0,0,0,93.5,646c1.24.76.87.57,0,0-.55-.33-1.39-.84-2.65-1.58,1.34.79,2.58,1.89,3.83,2.8,2,1.46,4,2.95,5.95,4.45,3,1.22,5.87,2.54,8.69,4a23.7,23.7,0,0,1,6.08,4.58h.32c7.66,0,13.39,3.12,19.12,7.66l.35.22c1.15.72,2.25,1.52,3.4,2.24,2.27,1.42,4.6,2.73,7,4,2.55,1.32,5.15,2.51,7.77,3.69.93.39,1.85.78,2.79,1.15l.6.26A157.57,157.57,0,0,1,192,688c2.4.86,4.8,1.78,7.2,2.72l.76-.31c10.05-3.87,21.61-1.31,32.08.44,8.08.83,16.22,1.23,24.33,1.81,4.26.3,8.51.75,12.75,1.26,1.84,0,3.68,0,5.52,0,11.16-8.57,23.5-11.76,37.2-14.59,12.41-2.56,24-8,36.45-10.5a34.47,34.47,0,0,1,12.44-7.37h0c1-.56,2.26-.92,3.2-1.37,2.53-1.24,5-2.59,7.44-4,2.25-1.34,4.44-2.78,6.58-4.29a13.85,13.85,0,0,1,1.61-1.33c.42-.32.83-.64,1.2-1,4.15-3.68,7.62-7.93,11.51-11.87a125.58,125.58,0,0,1,16.27-13.46c2.09-1.51,4.26-2.9,6.44-4.28.95-1,2.39-1.95,3.24-2.76,4.07-3.87,8-8,11.72-12.21.77-.86,1.45-2,2.3-2.73l-.54.5c-1.47,1.76-3.63,3.36,0,0,.15-.19.3-.37.43-.55,1.74-2.43,3.44-4.9,5.24-7.29,1.44-1.91,2.89-3.81,4.39-5.66.09-.61.18-1.21.31-1.82,2.06-9.85,6.83-19,12.78-27a72.5,72.5,0,0,0,6.89-10.84c.18-.36.34-.73.51-1.09.61-1.8,1.28-3.59,1.86-5.41a182.82,182.82,0,0,0,5.72-25.76,63.55,63.55,0,0,1,6.19-18c.55-1.1,1.25-3.08,2.07-4.48.16-2.4.28-4.8.51-7.2.45-4.71,1.32-9.25,2.16-13.83C480.82,470,480.13,466.16,480.24,462.35Z"/></g></svg>