<svg xmlns="http://www.w3.org/2000/svg" viewBox="0 0 178.16 156"><defs><style>.cls-1{fill:#4314ff;}.cls-2{fill:none;stroke:#000;stroke-miterlimit:10;stroke-width:9px;}.cls-3{fill:#fff;}</style></defs><title>Asset 5</title><g id="Layer_2" data-name="Layer 2"><g id="Layer_1-2" data-name="Layer 1"><rect class="cls-1" x="30.41" y="65" width="16" height="7.36"/><rect class="cls-1" x="30.41" y="78" width="16" height="7.36"/><circle class="cls-2" cx="100.16" cy="78" r="73.5"/><ellipse class="cls-2" cx="84.5" cy="78.21" rx="80" ry="71.82"/><circle class="cls-1" cx="100.16" cy="79.48" r="64"/><path class="cls-3" d="M100.16,22a57.5,57.5,0,1,1-57.5,57.5A57.5,57.5,0,0,1,100.16,22m0-13a70.5,70.5,0,1,0,70.5,70.5A70.58,70.58,0,0,0,100.16,9Z"/><rect x="7.53" y="50" width="23.13" height="5.79"/><rect x="4.5" y="62.11" width="23.13" height="5.79"/><rect x="4.5" y="74.21" width="23.13" height="5.79"/><rect x="4.5" y="86.32" width="23.13" height="5.79"/><rect x="5.53" y="98.42" width="22.1" height="5.79"/><rect x="11.91" y="110.53" width="21.88" height="5.79"/><rect x="22.03" y="122.64" width="19.94" height="5.79"/><rect x="15.03" y="35.68" width="20.44" height="5.79"/><rect class="cls-3" x="97.41" y="43.8" width="7.68" height="71.37"/><rect class="cls-3" x="96.32" y="47.39" width="7.68" height="58.25" transform="translate(-24.24 96.79) rotate(-46.64)"/><rect class="cls-3" x="96.32" y="52.64" width="7.68" height="47.74" transform="translate(83.44 -48.41) rotate(45)"/></g></g></svg>