<svg xmlns="http://www.w3.org/2000/svg" xmlns:xlink="http://www.w3.org/1999/xlink" viewBox="0 0 95.06 61.22"><defs><style>.cls-1{fill:none;}.cls-2{clip-path:url(#clip-path);}.cls-3{fill:#4314ff;}.cls-4{fill:#fff;}</style><clipPath id="clip-path" transform="translate(0 0)"><rect class="cls-1" width="95.06" height="61.22"/></clipPath></defs><title>Artwork 22</title><g id="Layer_2" data-name="Layer 2"><g id="Layer_1-2" data-name="Layer 1"><g id="Artwork_22" data-name="Artwork 22"><g class="cls-2"><g class="cls-2"><path d="M87.26,49.9H7.8V4.45H87.26Zm0-49.9H7.8A4.45,4.45,0,0,0,3.35,4.45V49.9A4.45,4.45,0,0,0,7.8,54.35H87.26a4.45,4.45,0,0,0,4.45-4.45V4.45A4.45,4.45,0,0,0,87.26,0" transform="translate(0 0)"/><path class="cls-3" d="M55.92,14.41H14.35a2.23,2.23,0,0,1-2.22-2.22V12a2.23,2.23,0,0,1,2.22-2.21H55.92A2.23,2.23,0,0,1,58.14,12v.16a2.23,2.23,0,0,1-2.22,2.22" transform="translate(0 0)"/><path class="cls-3" d="M43.58,20.58H14.35a2.22,2.22,0,0,1-2.22-2.21v-.16A2.22,2.22,0,0,1,14.35,16H43.58a2.21,2.21,0,0,1,2.21,2.21v.16a2.21,2.21,0,0,1-2.21,2.21" transform="translate(0 0)"/><path class="cls-3" d="M43.58,26.76H14.35a2.23,2.23,0,0,1-2.22-2.22v-.15a2.23,2.23,0,0,1,2.22-2.22H43.58a2.22,2.22,0,0,1,2.21,2.22v.15a2.22,2.22,0,0,1-2.21,2.22" transform="translate(0 0)"/><path class="cls-3" d="M43.58,39.11H14.35a2.22,2.22,0,0,1-2.22-2.21v-.16a2.22,2.22,0,0,1,2.22-2.21H43.58a2.21,2.21,0,0,1,2.21,2.21v.16a2.21,2.21,0,0,1-2.21,2.21" transform="translate(0 0)"/><path class="cls-3" d="M43.58,45.29H14.35a2.23,2.23,0,0,1-2.22-2.21v-.16a2.23,2.23,0,0,1,2.22-2.22H43.58a2.22,2.22,0,0,1,2.21,2.22v.16a2.22,2.22,0,0,1-2.21,2.21" transform="translate(0 0)"/><path class="cls-3" d="M63.07,32.94H14.35a2.23,2.23,0,0,1-2.22-2.22v-.15a2.23,2.23,0,0,1,2.22-2.22H63.07a2.23,2.23,0,0,1,2.22,2.22v.15a2.23,2.23,0,0,1-2.22,2.22" transform="translate(0 0)"/><path class="cls-4" d="M46.85,2.47a.7.7,0,0,1,1.36,0,.7.7,0,0,1-1.36,0" transform="translate(0 0)"/><path d="M0,55.82H95.06v2a3.37,3.37,0,0,1-3.37,3.38H3.37A3.37,3.37,0,0,1,0,57.84Z" transform="translate(0 0)"/><path class="cls-4" d="M36.91,55.5H58.15v.78a.89.89,0,0,1-.89.89H37.8a.89.89,0,0,1-.89-.89Z" transform="translate(0 0)"/></g></g></g></g></g></svg>