<svg xmlns="http://www.w3.org/2000/svg" xmlns:xlink="http://www.w3.org/1999/xlink" viewBox="0 0 124.83 92.29"><defs><style>.cls-1,.cls-4,.cls-6,.cls-8{fill:none;}.cls-2{clip-path:url(#clip-path);}.cls-3{fill:#4314ff;}.cls-4,.cls-6,.cls-8{stroke:#000;}.cls-4,.cls-6{stroke-miterlimit:10;}.cls-4,.cls-8{stroke-width:2.2px;}.cls-5{fill:#fff;}.cls-6{stroke-width:1.46px;}.cls-7{clip-path:url(#clip-path-3);}.cls-8{stroke-linejoin:bevel;}.cls-9{clip-path:url(#clip-path-5);}.cls-10{clip-path:url(#clip-path-6);}.cls-11{clip-path:url(#clip-path-7);}.cls-12{clip-path:url(#clip-path-8);}.cls-13{clip-path:url(#clip-path-9);}.cls-14{clip-path:url(#clip-path-10);}</style><clipPath id="clip-path" transform="translate(0 0)"><rect class="cls-1" x="3.22" y="34.44" width="110.21" height="33.65" transform="translate(-19.32 52.12) rotate(-41.94)"/></clipPath><clipPath id="clip-path-3" transform="translate(0 0)"><rect class="cls-1" x="55.46" y="44.2" width="12.32" height="8.22" transform="translate(-16.51 53.56) rotate(-41.94)"/></clipPath><clipPath id="clip-path-5" transform="translate(0 0)"><rect class="cls-1" x="5.83" width="7.25" height="10.87"/></clipPath><clipPath id="clip-path-6" transform="translate(0 0)"><rect class="cls-1" x="29.83" y="22.5" width="8.01" height="12"/></clipPath><clipPath id="clip-path-7" transform="translate(0 0)"><rect class="cls-1" x="111.57" y="75.5" width="7.27" height="10.89"/></clipPath><clipPath id="clip-path-8" transform="translate(0 0)"><rect class="cls-1" x="88.6" y="52" width="6.14" height="9.2"/></clipPath><clipPath id="clip-path-9" transform="translate(0 0)"><rect class="cls-1" x="117.33" y="24.94" width="7.5" height="11.24"/></clipPath><clipPath id="clip-path-10" transform="translate(0 0)"><rect class="cls-1" y="51.26" width="5.83" height="8.74"/></clipPath></defs><title>Asset 3</title><g id="Layer_2" data-name="Layer 2"><g id="Layer_1-2" data-name="Layer 1"><g id="Artwork_17" data-name="Artwork 17"><g class="cls-2"><rect class="cls-3" x="51.32" y="44.99" width="3.17" height="22.28" transform="translate(-23.96 49.74) rotate(-41.94)"/><rect class="cls-3" x="69.46" y="28.7" width="3.17" height="22.28" transform="translate(-8.43 57.69) rotate(-41.94)"/><g class="cls-2"><path class="cls-3" d="M17.31,88.06h0a3.44,3.44,0,0,1,.26-4.84l6.68-6a3.43,3.43,0,0,1,4.58,5.1l-6.68,6a3.44,3.44,0,0,1-4.84-.26" transform="translate(0 0)"/><path class="cls-3" d="M25.47,91.16h0a3.44,3.44,0,0,1,.26-4.84L29.44,83A3.42,3.42,0,0,1,34,88.09l-3.7,3.33a3.44,3.44,0,0,1-4.84-.26" transform="translate(0 0)"/><path class="cls-3" d="M16.33,78.63h0a3.45,3.45,0,0,1,.26-4.84l2.53-2.27a3.42,3.42,0,1,1,4.58,5.09l-2.53,2.27a3.44,3.44,0,0,1-4.84-.25" transform="translate(0 0)"/><rect class="cls-4" x="26.9" y="41.98" width="58.74" height="22.28" transform="translate(-21.09 51.22) rotate(-41.94)"/><path class="cls-5" d="M22.75,68.26c-2-2.26,1.5-6.88,5.14-10.14a19.85,19.85,0,0,1,9.41-4.47l2-.3-.51,2a20,20,0,0,1-5.45,8.88c-3.64,3.27-8.6,6.28-10.63,4" transform="translate(0 0)"/><path d="M37.5,55a18.58,18.58,0,0,1-5,8.21c-3.8,3.41-7.69,5.26-8.7,4.13s1.24-4.8,5-8.21A18.69,18.69,0,0,1,37.5,55m3.69-3.31-4.09.6A21.45,21.45,0,0,0,27,57.1c-2.08,1.87-8.63,8.29-5.24,12.07s10.48-2,12.57-3.92a21.44,21.44,0,0,0,5.85-9.56Z" transform="translate(0 0)"/><path class="cls-5" d="M37.64,84.83c-2-2.26,1.5-6.88,5.14-10.14a19.85,19.85,0,0,1,9.41-4.47l2-.3-.51,2a20,20,0,0,1-5.45,8.88c-3.63,3.27-8.6,6.28-10.63,4" transform="translate(0 0)"/><path d="M52.39,71.57a18.58,18.58,0,0,1-5,8.21c-3.79,3.41-7.69,5.26-8.7,4.13s1.24-4.8,5-8.2a18.59,18.59,0,0,1,8.69-4.14m3.69-3.31L52,68.87a21.39,21.39,0,0,0-10.13,4.8c-2.08,1.88-8.63,8.29-5.24,12.07s10.48-2,12.57-3.92A21.44,21.44,0,0,0,55,72.26Z" transform="translate(0 0)"/><polygon class="cls-6" points="75.17 15.52 95.66 38.33 87.41 42.31 70.33 23.3 75.17 15.52"/></g><g class="cls-7"><rect class="cls-3" x="55.58" y="47.79" width="12.32" height="1.32" transform="translate(-16.57 53.68) rotate(-41.94)"/><rect class="cls-3" x="56.97" y="47.31" width="10.05" height="1.32" transform="translate(12.5 108.75) rotate(-88.58)"/><rect class="cls-3" x="61.33" y="43.85" width="1.32" height="8.24" transform="translate(10.79 107.32) rotate(-86.94)"/></g><g class="cls-2"><path class="cls-8" d="M75.46,15.25q35-10.86,20.5,22.81" transform="translate(0 0)"/></g></g></g><g id="Artwork_15" data-name="Artwork 15"><g class="cls-9"><rect class="cls-3" x="9.04" width="1.17" height="10.87"/><rect class="cls-3" x="8.87" y="0.55" width="1.17" height="8.87" transform="translate(-0.66 8.44) rotate(-46.64)"/><rect class="cls-3" x="5.82" y="4.4" width="7.27" height="1.17" transform="translate(-0.75 8.15) rotate(-45)"/></g></g><g id="Artwork_15-2" data-name="Artwork 15"><g class="cls-10"><rect class="cls-3" x="33.37" y="22.5" width="1.29" height="12"/><rect class="cls-3" x="33.19" y="23.1" width="1.29" height="9.79" transform="translate(-9.75 33.37) rotate(-46.64)"/><rect class="cls-3" x="29.82" y="27.36" width="8.03" height="1.29" transform="translate(-9.89 32.13) rotate(-45)"/></g></g><g id="Artwork_15-3" data-name="Artwork 15"><g class="cls-11"><rect class="cls-3" x="114.78" y="75.5" width="1.17" height="10.89"/><rect class="cls-3" x="114.61" y="76.05" width="1.17" height="8.89" transform="translate(-22.42 108.98) rotate(-46.64)"/><rect class="cls-3" x="111.56" y="79.91" width="7.28" height="1.17" transform="translate(-23.18 105.03) rotate(-45)"/></g></g><g id="Artwork_15-4" data-name="Artwork 15"><g class="cls-12"><rect class="cls-3" x="91.31" y="52" width="0.99" height="9.2"/><rect class="cls-3" x="91.17" y="52.46" width="0.99" height="7.51" transform="translate(-12.15 84.26) rotate(-46.64)"/><rect class="cls-3" x="88.59" y="55.72" width="6.16" height="0.99" transform="translate(-12.9 81.28) rotate(-45)"/></g></g><g id="Artwork_15-5" data-name="Artwork 15"><g class="cls-13"><rect class="cls-3" x="120.65" y="24.94" width="1.21" height="11.24"/><rect class="cls-3" x="120.48" y="25.51" width="1.21" height="9.17" transform="translate(16.06 97.46) rotate(-46.64)"/><rect class="cls-3" x="117.32" y="29.49" width="7.52" height="1.21" transform="translate(14.18 94.43) rotate(-45)"/></g></g><g id="Artwork_15-6" data-name="Artwork 15"><g class="cls-14"><rect class="cls-3" x="2.58" y="51.26" width="0.94" height="8.74"/><rect class="cls-3" x="2.45" y="51.7" width="0.94" height="7.13" transform="translate(-39.27 19.44) rotate(-46.64)"/><rect class="cls-3" x="-0.01" y="54.8" width="5.85" height="0.94" transform="translate(-38.23 18.25) rotate(-45)"/></g></g></g></g></svg>