<svg id="Layer_1" data-name="Layer 1" xmlns="http://www.w3.org/2000/svg" viewBox="0 0 199.62 190.97"><defs><style>.cls-1,.cls-2,.cls-3{fill:none;stroke-miterlimit:10;}.cls-1,.cls-2{stroke:#231f20;}.cls-1{stroke-width:3px;}.cls-2{stroke-width:5px;}.cls-3{stroke:#4314ff;stroke-width:8px;}</style></defs><title>Neural Net Icon</title><line class="cls-1" x1="162.35" y1="60.62" x2="116.44" y2="20.63"/><line class="cls-1" x1="116.44" y1="70.54" x2="162.35" y2="60.62"/><line class="cls-1" x1="116.44" y1="120.44" x2="162.35" y2="130.35"/><line class="cls-1" x1="116.44" y1="170.34" x2="162.35" y2="130.35"/><line class="cls-2" x1="116.44" y1="20.63" x2="116.44" y2="20.63"/><line class="cls-1" x1="37.27" y1="42.38" x2="83.18" y2="20.63"/><line class="cls-1" x1="83.18" y1="70.54" x2="37.27" y2="42.38"/><line class="cls-1" x1="83.18" y1="120.44" x2="37.27" y2="42.38"/><line class="cls-1" x1="83.18" y1="170.34" x2="37.27" y2="42.38"/><line class="cls-1" x1="37.27" y1="95.49" x2="83.18" y2="20.63"/><line class="cls-1" x1="83.18" y1="70.54" x2="37.27" y2="95.49"/><line class="cls-1" x1="83.18" y1="120.44" x2="37.27" y2="95.49"/><line class="cls-1" x1="83.18" y1="170.34" x2="37.27" y2="95.49"/><line class="cls-1" x1="37.27" y1="148.59" x2="83.18" y2="20.63"/><line class="cls-1" x1="83.18" y1="70.54" x2="37.27" y2="148.59"/><line class="cls-1" x1="83.18" y1="120.44" x2="37.27" y2="148.59"/><line class="cls-1" x1="83.18" y1="170.34" x2="37.27" y2="148.59"/><line class="cls-1" x1="116.44" y1="20.63" x2="162.35" y2="130.35"/><line class="cls-1" x1="116.44" y1="70.54" x2="162.35" y2="130.35"/><line class="cls-1" x1="162.35" y1="60.62" x2="116.44" y2="120.44"/><line class="cls-1" x1="116.44" y1="170.34" x2="162.35" y2="60.62"/><circle class="cls-3" cx="178.99" cy="60.62" r="16.63"/><circle class="cls-3" cx="178.99" cy="130.35" r="16.63"/><circle class="cls-3" cx="99.81" cy="20.63" r="16.63"/><circle class="cls-3" cx="99.81" cy="70.54" r="16.63"/><circle class="cls-3" cx="99.81" cy="120.44" r="16.63"/><circle class="cls-3" cx="99.81" cy="170.34" r="16.63"/><circle class="cls-3" cx="20.63" cy="42.38" r="16.63"/><circle class="cls-3" cx="20.63" cy="95.49" r="16.63"/><circle class="cls-3" cx="20.63" cy="148.59" r="16.63"/></svg>