<svg xmlns="http://www.w3.org/2000/svg" xmlns:xlink="http://www.w3.org/1999/xlink" viewBox="0 0 177.63 90.22"><defs><style>.cls-1,.cls-3,.cls-5,.cls-6{fill:none;}.cls-2{clip-path:url(#clip-path);}.cls-3,.cls-5,.cls-6{stroke:#000;stroke-miterlimit:10;}.cls-3{stroke-width:4.32px;}.cls-4{fill:#fff;}.cls-5{stroke-width:3.09px;}.cls-6{stroke-width:3.7px;}.cls-7{fill:#4314ff;}</style><clipPath id="clip-path"><rect class="cls-1" x="39.79" y="11.37" width="98.04" height="78.84"/></clipPath></defs><title>Asset 4</title><g id="Layer_2" data-name="Layer 2"><g id="Layer_1-2" data-name="Layer 1"><g id="Artwork_16" data-name="Artwork 16"><g class="cls-2"><g class="cls-2"><rect class="cls-3" x="41.95" y="22.96" width="93.72" height="58.82" rx="7.41" ry="7.41"/><polygon class="cls-4" points="81.61 12.92 97.04 12.92 105.28 35.51 72.35 35.51 81.61 12.92"/><polygon class="cls-5" points="81.61 12.92 97.04 12.92 105.28 35.51 72.35 35.51 81.61 12.92"/><path class="cls-4" d="M58.49,58.67a30,30,0,1,1,30,29.69,29.83,29.83,0,0,1-30-29.69"/><path class="cls-6" d="M58.49,58.67a30,30,0,1,1,30,29.69A29.83,29.83,0,0,1,58.49,58.67Z"/><path class="cls-7" d="M69.19,58.86A19.84,19.84,0,1,1,89,78.52,19.75,19.75,0,0,1,69.19,58.86"/><rect x="52.79" y="15.85" width="16.89" height="5.02"/></g></g></g><rect class="cls-4" x="0.5" y="0.5" width="19.5" height="21.75"/><path class="cls-7" d="M19.5,1V21.75H1V1H19.5m1-1H0V22.75H20.5V0Z"/><rect x="2.06" y="1.87" width="16.38" height="15.13"/><rect class="cls-4" x="9.75" y="32.96" width="19.5" height="21.75"/><path class="cls-7" d="M28.75,33.46V54.21H10.25V33.46h18.5m1-1H9.25V55.21h20.5V32.46Z"/><rect x="11.31" y="34.34" width="16.38" height="15.13"/><rect class="cls-4" x="0.5" y="65.42" width="19.5" height="21.75"/><path class="cls-7" d="M19.5,65.92V86.67H1V65.92H19.5m1-1H0V87.67H20.5V64.92Z"/><rect x="2.06" y="66.8" width="16.38" height="15.13"/><rect class="cls-4" x="157.63" y="0.5" width="19.5" height="21.75"/><path class="cls-7" d="M176.63,1V21.75h-18.5V1h18.5m1-1h-20.5V22.75h20.5V0Z"/><rect x="159.19" y="1.87" width="16.38" height="15.13"/><rect class="cls-4" x="148.38" y="32.96" width="19.5" height="21.75"/><path class="cls-7" d="M167.38,33.46V54.21h-18.5V33.46h18.5m1-1h-20.5V55.21h20.5V32.46Z"/><rect x="149.94" y="34.34" width="16.38" height="15.13"/><rect class="cls-4" x="157.63" y="65.42" width="19.5" height="21.75"/><path class="cls-7" d="M176.63,65.92V86.67h-18.5V65.92h18.5m1-1h-20.5V87.67h20.5V64.92Z"/><rect x="159.19" y="66.8" width="16.38" height="15.13"/></g></g></svg>