<svg xmlns="http://www.w3.org/2000/svg" xmlns:xlink="http://www.w3.org/1999/xlink" viewBox="0 0 88.44 71.12"><defs><style>.cls-1,.cls-3,.cls-5,.cls-6{fill:none;}.cls-2{clip-path:url(#clip-path);}.cls-3,.cls-5,.cls-6{stroke:#000;stroke-miterlimit:10;}.cls-3{stroke-width:3.9px;}.cls-4{fill:#fff;}.cls-5{stroke-width:2.78px;}.cls-6{stroke-width:3.34px;}.cls-7{fill:#4314ff;}</style><clipPath id="clip-path" transform="translate(0 0)"><rect class="cls-1" width="88.44" height="71.12"/></clipPath></defs><title>Artwork 16</title><g id="Layer_2" data-name="Layer 2"><g id="Layer_1-2" data-name="Layer 1"><g id="Artwork_16" data-name="Artwork 16"><g class="cls-2"><g class="cls-2"><rect class="cls-3" x="1.95" y="10.45" width="84.54" height="53.06" rx="6.68" ry="6.68"/><polygon class="cls-4" points="37.72 1.39 51.65 1.39 59.07 21.77 29.37 21.77 37.72 1.39"/><polygon class="cls-5" points="37.72 1.39 51.65 1.39 59.07 21.77 29.37 21.77 37.72 1.39"/><path class="cls-4" d="M16.87,42.67a27,27,0,1,1,27,26.78,26.91,26.91,0,0,1-27-26.78" transform="translate(0 0)"/><path class="cls-6" d="M16.87,42.67a27,27,0,1,1,27,26.78A26.91,26.91,0,0,1,16.87,42.67Z" transform="translate(0 0)"/><path class="cls-7" d="M26.52,42.84A17.9,17.9,0,1,1,44.41,60.57,17.81,17.81,0,0,1,26.52,42.84" transform="translate(0 0)"/><rect x="11.72" y="4.03" width="15.23" height="4.53"/></g></g></g></g></g></svg>