<svg xmlns="http://www.w3.org/2000/svg" xmlns:xlink="http://www.w3.org/1999/xlink" viewBox="0 0 61.98 201.2"><defs><style>.cls-1,.cls-3,.cls-5,.cls-7{fill:none;}.cls-2{fill:#4314ff;}.cls-3,.cls-5,.cls-7{stroke:#000;}.cls-3,.cls-5{stroke-miterlimit:10;}.cls-3,.cls-7{stroke-width:6px;}.cls-4{fill:#fff;}.cls-5{stroke-width:4px;}.cls-6{clip-path:url(#clip-path);}.cls-7{stroke-linecap:round;stroke-linejoin:bevel;}</style><clipPath id="clip-path"><rect class="cls-1" x="23.49" y="81.3" width="15" height="22.48"/></clipPath></defs><title>Asset 3</title><g id="Layer_2" data-name="Layer 2"><g id="Layer_1-2" data-name="Layer 1"><rect class="cls-2" x="10.65" y="111.01" width="40.67" height="5.79"/><rect class="cls-2" x="10.65" y="66.51" width="40.67" height="5.79"/><rect class="cls-2" x="24.65" y="172.3" width="12.5" height="28.9" rx="6.25" ry="6.25"/><rect class="cls-2" x="38.82" y="172.3" width="12.5" height="21.61" rx="6.25" ry="6.25"/><rect class="cls-2" x="10.65" y="172.3" width="12.5" height="18.72" rx="6.25" ry="6.25"/><rect class="cls-3" x="10.65" y="52.05" width="40.67" height="107.24"/><path class="cls-4" d="M10.65,169.65c-5.53,0-7.5-10.42-7.5-19.35a36.32,36.32,0,0,1,5.42-18.23l2.08-3.14,2.09,3.14a36.36,36.36,0,0,1,5.41,18.23C18.15,159.23,16.19,169.65,10.65,169.65Z"/><path d="M10.65,133.45a34,34,0,0,1,5,16.85c0,9.31-2.23,16.85-5,16.85s-5-7.54-5-16.85a34,34,0,0,1,5-16.85m0-9-4.16,6.28A39,39,0,0,0,.65,150.3c0,5.13.73,21.85,10,21.85s10-16.72,10-21.85a39,39,0,0,0-5.83-19.61l-4.17-6.28Z"/><path class="cls-4" d="M51.33,169.65c-5.54,0-7.5-10.42-7.5-19.35a36.36,36.36,0,0,1,5.41-18.23l2.09-3.14,2.08,3.14a36.32,36.32,0,0,1,5.42,18.23C58.83,159.23,56.86,169.65,51.33,169.65Z"/><path d="M51.33,133.45a34,34,0,0,1,5,16.85c0,9.31-2.24,16.85-5,16.85s-5-7.54-5-16.85a34,34,0,0,1,5-16.85m0-9-4.17,6.28a39,39,0,0,0-5.83,19.61c0,5.13.72,21.85,10,21.85s10-16.72,10-21.85a39,39,0,0,0-5.84-19.61l-4.16-6.28Z"/><polygon class="cls-5" points="3 34.13 58.98 34.13 54.31 50.19 7.67 50.19 3 34.13"/><g id="Artwork_15" data-name="Artwork 15"><g class="cls-6"><rect class="cls-2" x="30.12" y="81.3" width="2.42" height="22.48"/><rect class="cls-2" x="29.78" y="82.43" width="2.42" height="18.35" transform="translate(-56.89 51.24) rotate(-46.64)"/><rect class="cls-2" x="23.47" y="90.4" width="15.04" height="2.42" transform="translate(-55.7 48.74) rotate(-45)"/></g></g><path class="cls-7" d="M3,33.4q28-60.79,56,0"/></g></g></svg>