<svg xmlns="http://www.w3.org/2000/svg" xmlns:xlink="http://www.w3.org/1999/xlink" viewBox="0 0 136.47 81.91"><defs><style>.cls-1,.cls-3{fill:none;}.cls-2{clip-path:url(#clip-path);}.cls-3{stroke:#000;stroke-miterlimit:10;stroke-width:5.76px;}.cls-10,.cls-11,.cls-12,.cls-4,.cls-5,.cls-7,.cls-9{fill:#4314ff;}.cls-10,.cls-11,.cls-12,.cls-13,.cls-15,.cls-5,.cls-7,.cls-9{font-size:9px;font-family:MyriadPro-Bold, Myriad Pro;font-weight:700;}.cls-5{letter-spacing:-0.03em;}.cls-15,.cls-6{letter-spacing:-0.02em;}.cls-7{letter-spacing:-0.02em;}.cls-13,.cls-8{letter-spacing:-0.02em;}.cls-9{letter-spacing:-0.04em;}.cls-10{letter-spacing:-0.02em;}.cls-11{letter-spacing:-0.02em;}.cls-12{letter-spacing:-0.03em;}.cls-14{letter-spacing:-0.02em;}</style><clipPath id="clip-path" transform="translate(-275 -175)"><rect class="cls-1" x="301.23" y="175.11" width="81.79" height="81.79"/></clipPath></defs><title>Asset 2</title><g id="Layer_2" data-name="Layer 2"><g id="Layer_1-2" data-name="Layer 1"><g id="Artwork_18" data-name="Artwork 18"><g class="cls-2"><g class="cls-2"><rect class="cls-3" x="29.12" y="3" width="76.03" height="76.03" rx="6.29" ry="6.29"/><path class="cls-4" d="M351.49,193.77H316a3.88,3.88,0,0,1,0-7.76h35.52a3.88,3.88,0,1,1,0,7.76" transform="translate(-275 -175)"/><path class="cls-4" d="M339.88,204.23H316a3.89,3.89,0,0,1,0-7.77h23.91a3.89,3.89,0,0,1,0,7.77" transform="translate(-275 -175)"/><path class="cls-4" d="M339.88,214.68H316a3.88,3.88,0,0,1,0-7.76h23.91a3.88,3.88,0,0,1,0,7.76" transform="translate(-275 -175)"/><path class="cls-4" d="M339.88,235.6H316a3.89,3.89,0,0,1,0-7.77h23.91a3.89,3.89,0,0,1,0,7.77" transform="translate(-275 -175)"/><path class="cls-4" d="M339.88,246.05H316a3.88,3.88,0,0,1,0-7.76h23.91a3.88,3.88,0,1,1,0,7.76" transform="translate(-275 -175)"/><path class="cls-4" d="M358.22,225.14H316a3.89,3.89,0,0,1,0-7.77h42.25a3.89,3.89,0,0,1,0,7.77" transform="translate(-275 -175)"/></g></g></g><text class="cls-5" transform="translate(0 10.03)">A<tspan class="cls-6" x="5.63" y="0">e</tspan></text><text class="cls-7" transform="translate(1.11 78.28)">A<tspan class="cls-8" x="5.71" y="0">i</tspan></text><text class="cls-9" transform="translate(124.9 7.53)">P<tspan class="cls-6" x="4.9" y="0">s</tspan></text><text class="cls-10" transform="translate(125.42 42.28)">I<tspan class="cls-6" x="2.39" y="0">d</tspan></text><text class="cls-11" transform="translate(0.98 44.16)">P<tspan class="cls-6" x="5" y="0">r</tspan></text><text class="cls-12" transform="translate(124.01 77.03)">X<tspan class="cls-8" x="5.2" y="0">d</tspan></text><text class="cls-13" transform="translate(113.74 27.33)">H<tspan class="cls-14" x="6.06" y="0">T</tspan><tspan class="cls-6" x="10.81" y="0">ML</tspan></text><text class="cls-15" transform="translate(5.6 27.33)">CSS</text><text class="cls-13" transform="translate(121.45 61.23)">Js</text><text class="cls-15" transform="translate(10.28 61.23)">B</text></g></g></svg>