<svg xmlns="http://www.w3.org/2000/svg" xmlns:xlink="http://www.w3.org/1999/xlink" viewBox="0 0 95.83 77.88"><defs><style>.cls-1,.cls-11{fill:none;}.cls-2{clip-path:url(#clip-path);}.cls-3{fill:#4314ff;}.cls-4{clip-path:url(#clip-path-2);}.cls-5{clip-path:url(#clip-path-3);}.cls-6{clip-path:url(#clip-path-4);}.cls-7{clip-path:url(#clip-path-5);}.cls-8{clip-path:url(#clip-path-6);}.cls-9{clip-path:url(#clip-path-7);}.cls-10{fill:#fff;}.cls-11{stroke:#4314ff;stroke-miterlimit:10;stroke-width:2px;}</style><clipPath id="clip-path" transform="translate(-6.04 -8.49)"><rect class="cls-1" x="15.87" y="18.99" width="7.25" height="10.87"/></clipPath><clipPath id="clip-path-2" transform="translate(-6.04 -8.49)"><rect class="cls-1" x="39.87" y="8.49" width="8.01" height="12"/></clipPath><clipPath id="clip-path-3" transform="translate(-6.04 -8.49)"><rect class="cls-1" x="69.61" y="68.49" width="7.27" height="10.89"/></clipPath><clipPath id="clip-path-4" transform="translate(-6.04 -8.49)"><rect class="cls-1" x="85.64" y="48.99" width="6.14" height="9.2"/></clipPath><clipPath id="clip-path-5" transform="translate(-6.04 -8.49)"><rect class="cls-1" x="94.37" y="23.93" width="7.5" height="11.24"/></clipPath><clipPath id="clip-path-6" transform="translate(-6.04 -8.49)"><rect class="cls-1" x="6.04" y="43.25" width="5.83" height="8.74"/></clipPath><clipPath id="clip-path-7" transform="translate(-6.04 -8.49)"><rect class="cls-1" x="2.93" y="26.27" width="93.39" height="47.64" transform="translate(-20.88 50.78) rotate(-45.83)"/></clipPath></defs><title>Asset 7</title><g id="Layer_2" data-name="Layer 2"><g id="Layer_1-2" data-name="Layer 1"><g id="Artwork_15" data-name="Artwork 15"><g class="cls-2"><rect class="cls-3" x="13.04" y="10.5" width="1.17" height="10.87"/><rect class="cls-3" x="18.91" y="19.53" width="1.17" height="8.87" transform="translate(-17.36 13.2) rotate(-46.64)"/><rect class="cls-3" x="15.86" y="23.38" width="7.27" height="1.17" transform="translate(-17.28 12.32) rotate(-45)"/></g></g><g id="Artwork_15-2" data-name="Artwork 15"><g class="cls-4"><rect class="cls-3" x="37.37" width="1.29" height="12"/><rect class="cls-3" x="43.23" y="9.09" width="1.29" height="9.79" transform="translate(-2.46 27.79) rotate(-46.64)"/><rect class="cls-3" x="39.86" y="13.34" width="8.03" height="1.29" transform="translate(-3.08 26.63) rotate(-45)"/></g></g><g id="Artwork_15-3" data-name="Artwork 15"><g class="cls-5"><rect class="cls-3" x="66.78" y="60" width="1.17" height="10.89"/><rect class="cls-3" x="72.65" y="69.04" width="1.17" height="8.89" transform="translate(-36.51 67.79) rotate(-46.64)"/><rect class="cls-3" x="69.6" y="72.89" width="7.28" height="1.17" transform="translate(-36.55 64.82) rotate(-45)"/></g></g><g id="Artwork_15-4" data-name="Artwork 15"><g class="cls-6"><rect class="cls-3" x="82.31" y="40.5" width="0.99" height="9.2"/><rect class="cls-3" x="88.21" y="49.45" width="0.99" height="7.51" transform="translate(-16.92 72.68) rotate(-46.64)"/><rect class="cls-3" x="85.63" y="52.71" width="6.16" height="0.99" transform="translate(-17.68 69.82) rotate(-45)"/></g></g><g id="Artwork_15-5" data-name="Artwork 15"><g class="cls-7"><rect class="cls-3" x="91.65" y="15.44" width="1.21" height="11.24"/><rect class="cls-3" x="97.52" y="24.5" width="1.21" height="9.17" transform="translate(3.56 71.96) rotate(-46.64)"/><rect class="cls-3" x="94.36" y="28.48" width="7.52" height="1.21" transform="translate(2.13 69.41) rotate(-45)"/></g></g><g id="Artwork_15-6" data-name="Artwork 15"><g class="cls-8"><rect class="cls-3" x="2.58" y="34.76" width="0.94" height="8.74"/><rect class="cls-3" x="8.49" y="43.69" width="0.94" height="7.13" transform="translate(-37.59 12.83) rotate(-46.64)"/><rect class="cls-3" x="6.03" y="46.78" width="5.85" height="0.94" transform="translate(-36.83 11.69) rotate(-45)"/></g></g><g id="Artwork_19" data-name="Artwork 19"><g class="cls-9"><rect x="70.25" y="18.13" width="2.69" height="18.9" transform="translate(-4.12 51.23) rotate(-45.83)"/><g class="cls-9"><path class="cls-3" d="M17.25,83.74h0a2.9,2.9,0,0,1-.06-4.1l6.64-6.84a2.91,2.91,0,0,1,4.17,4l-6.64,6.83a2.91,2.91,0,0,1-4.11.06" transform="translate(-6.04 -8.49)"/><path class="cls-3" d="M24.67,85.55h0a2.92,2.92,0,0,1-.06-4.11l3.94-4a2.9,2.9,0,0,1,4.17,4l-3.94,4.06a2.91,2.91,0,0,1-4.11.06" transform="translate(-6.04 -8.49)"/><path class="cls-3" d="M16.35,75.33h0a2.91,2.91,0,0,1-.06-4.1l2.88-3a2.9,2.9,0,1,1,4.16,4l-2.87,3a2.91,2.91,0,0,1-4.11.06" transform="translate(-6.04 -8.49)"/><path d="M78.42,20.56c-.4,7.25-2.48,23.34-12.84,34C58.73,61.62,51.06,67,44,69.64c-6.06,2.29-10.89,2.28-13.25,0s-2.5-7.12-.39-13.24c2.46-7.15,7.59-15,14.44-22C55.12,23.74,71.18,21.18,78.42,20.56m3.79-3.91s-25.16-.23-40.09,15.13-21.18,33.51-14,40.52,25.16.23,40.09-15.14,14-40.51,14-40.51" transform="translate(-6.04 -8.49)"/><path class="cls-10" d="M18,58.78c-3.14-3,2.52-10.54,6.36-14.49a28.07,28.07,0,0,1,12.83-7.2l2.39-.52L39.09,39a28,28,0,0,1-6.82,13C28.43,56,21.1,61.83,18,58.78" transform="translate(-6.04 -8.49)"/><path d="M37.49,38.68a26.59,26.59,0,0,1-6.39,12.2c-5.08,5.23-10.45,8.25-12,6.74s1.3-7,6.38-12.2a26.58,26.58,0,0,1,12-6.74m4.1-4.22-4.79,1a29.92,29.92,0,0,0-13.65,7.65c-1.91,2-11.22,12.05-6.32,16.8s14.69-4.83,16.61-6.8a29.91,29.91,0,0,0,7.25-13.87Z" transform="translate(-6.04 -8.49)"/><path class="cls-10" d="M41.85,82c-3.14-3,2.51-10.55,6.35-14.5A27.94,27.94,0,0,1,61,60.3l2.4-.53L63,62.18a28,28,0,0,1-6.82,13C52.32,79.17,45,85,41.85,82" transform="translate(-6.04 -8.49)"/><path d="M61.38,61.88A26.59,26.59,0,0,1,55,74.08c-5.08,5.23-10.46,8.25-12,6.74s1.31-7,6.39-12.2a26.58,26.58,0,0,1,12-6.74m4.1-4.22-4.8,1.05A29.81,29.81,0,0,0,47,66.36c-1.91,2-11.21,12-6.32,16.79s14.7-4.83,16.61-6.8a29.8,29.8,0,0,0,7.25-13.87Z" transform="translate(-6.04 -8.49)"/><path class="cls-10" d="M54.06,36a6.85,6.85,0,1,1,.14,9.68A6.84,6.84,0,0,1,54.06,36" transform="translate(-6.04 -8.49)"/><path class="cls-11" d="M54.06,36a6.85,6.85,0,1,1,.14,9.68A6.84,6.84,0,0,1,54.06,36Z" transform="translate(-6.04 -8.49)"/></g></g></g></g></g></svg>